# xmcd
#
# Track frame offsets: 
#        150
#        8234
#        23861
#        38484
#        54398
#        70879
#        104038
#        120904
#        138080
#        151613
#        177572
#
# Disc length: 2521 seconds
#
# Revision: 0
# Processed by: cddbd v1.5.2PL0 Copyright (c) Steve Scherf et al.
# Submitted via: ExactAudioCopyFreeDBPlugin 1.0
#
DISCID=8309d70b
DTITLE=Brother Dege - Farmer's Almanac
DYEAR=2018
DGENRE=Rock
TTITLE0=Partial To The Bitters
TTITLE1=Country Come To Town
TTITLE2=The Early Morn
TTITLE3=The Shakedown 
TTITLE4=Bastard's Blues
TTITLE5=The Moon and The Scarecrow
TTITLE6=The Ballad Of Ingo Swann
TTITLE7=Laredo
TTITLE8=Whiteboy
TTITLE9=No Man A Slave
TTITLE10=Partial To The Bitters Pt. II
EXTD=
EXTT0=
EXTT1=
EXTT2=
EXTT3=
EXTT4=
EXTT5=
EXTT6=
EXTT7=
EXTT8=
EXTT9=
EXTT10=
PLAYORDER=
